<svg xmlns="http://www.w3.org/2000/svg" viewBox="0 0 200 200" role="img" aria-label="Cal State LA">
  <circle cx="100" cy="100" r="98" fill="#1a1a1a" stroke="#ffcd00" stroke-width="4"/>
  <path fill="#ffcd00" d="M128 72c-8-18-28-28-48-24-22 4-38 24-38 46 0 8 2 16 6 22l-12 10 8 4 10-14c6 3 12 4 18 4 26 0 48-20 48-46 0-2 0-4-2-6zm-50 8c14-2 26 6 30 18l-30-18zm-8 32c-4-6-6-14-4-22 2 10 8 18 16 22h-12z"/>
  <text x="100" y="168" text-anchor="middle" fill="#ffcd00" font-family="Arial, Helvetica, sans-serif" font-size="14" font-weight="700">Cal State LA</text>
</svg>
